# xmcd
# 
# Track frame offsets:
#     150
#     15590
#     41145
#     69395
# 
# Disc length: 1237
# 
# Revision: 0
# Processed by: cddbd v1.5.2PL0 Copyright (c) Steve Scherf et al.
# Submitted via: fre:ac v1.0.17
# 
DISCID=2c04d304
DTITLE=Rip and Rob - Can You Steal It! The Club Tunes Anthem
DYEAR=1998
DGENRE=
TTITLE0=Can You Steal It! The Club Tunes Anthem (Single Cut)
TTITLE1=Can You Steal It! The Club Tunes Anthem (Paffendorf Remix)
TTITLE2=Can You Steal It! The Club Tunes Anthem (Kosmonova Remix)
TTITLE3=Can You Steal It! The Club Tunes Anthem (Extended Mix)
EXTD=
EXTT0=
EXTT1=
EXTT2=
EXTT3=
PLAYORDER=
